<svg width="17" height="17" viewBox="0 0 17 17" fill="none" xmlns="http://www.w3.org/2000/svg">
<path fill-rule="evenodd" clip-rule="evenodd" d="M1.68359 8.66427C1.68359 8.30281 1.97664 8.00974 2.33811 8.00974H14.1195C14.4809 8.00974 14.774 8.30281 14.774 8.66427C14.774 9.02579 14.4809 9.31881 14.1195 9.31881H2.33811C1.97664 9.31881 1.68359 9.02579 1.68359 8.66427Z" fill="white"/>
<path fill-rule="evenodd" clip-rule="evenodd" d="M9.72954 4.27435C9.98508 4.01874 10.3996 4.01874 10.6552 4.27435L14.5823 8.20149C14.8378 8.45704 14.8378 8.87151 14.5823 9.12711L10.6552 13.0542C10.3996 13.3098 9.98508 13.3098 9.72954 13.0542C9.47394 12.7986 9.47394 12.3842 9.72954 12.1286L13.1938 8.66427L9.72954 5.19998C9.47394 4.94437 9.47394 4.52996 9.72954 4.27435Z" fill="white"/>
</svg>
