<svg width="15" height="15" viewBox="0 0 15 15" fill="none" xmlns="http://www.w3.org/2000/svg">
<path d="M7.50298 1.35146C5.5 1.35146 5.26488 1.36039 4.47321 1.39611C3.74107 1.42885 3.34524 1.5509 3.08036 1.65509C2.72917 1.79202 2.47917 1.95277 2.21726 2.21473C1.95536 2.47668 1.79167 2.72673 1.65774 3.07799C1.55655 3.34293 1.43155 3.73884 1.39881 4.47113C1.3631 5.26295 1.35417 5.49811 1.35417 7.50149C1.35417 9.50486 1.3631 9.74003 1.39881 10.5319C1.43155 11.2641 1.55357 11.6601 1.65774 11.925C1.79464 12.2762 1.95536 12.5263 2.21726 12.7883C2.47917 13.0502 2.72917 13.2139 3.08036 13.3479C3.34524 13.4491 3.74107 13.5741 4.47321 13.6069C5.26488 13.6426 5.5 13.6515 7.50298 13.6515C9.50595 13.6515 9.74107 13.6426 10.5327 13.6069C11.2649 13.5741 11.6607 13.4521 11.9256 13.3479C12.2768 13.211 12.5268 13.0502 12.7887 12.7883C13.0506 12.5263 13.2143 12.2762 13.3482 11.925C13.4494 11.6601 13.5744 11.2641 13.6071 10.5319C13.6429 9.74003 13.6518 9.50486 13.6518 7.50149C13.6518 5.49811 13.6429 5.26295 13.6071 4.47113C13.5744 3.73884 13.4524 3.34293 13.3482 3.07799C13.2113 2.72673 13.0506 2.47668 12.7887 2.21473C12.5268 1.95277 12.2768 1.78905 11.9256 1.65509C11.6607 1.55388 11.2649 1.42885 10.5327 1.39611C9.74107 1.35741 9.50298 1.35146 7.50298 1.35146ZM7.50298 0C9.53869 0 9.79464 0.00893034 10.5952 0.0446517C11.3929 0.0803731 11.9375 0.208375 12.4137 0.392935C12.9077 0.583449 13.3244 0.842429 13.7411 1.25918C14.1577 1.67593 14.4137 2.09565 14.6071 2.58682C14.7917 3.06311 14.9196 3.60786 14.9554 4.40861C14.9911 5.20639 15 5.46239 15 7.49851C15 9.53463 14.9911 9.79063 14.9554 10.5914C14.9196 11.3892 14.7917 11.9339 14.6071 12.4132C14.4167 12.9073 14.1577 13.3241 13.7411 13.7408C13.3244 14.1576 12.9048 14.4136 12.4137 14.6071C11.9375 14.7916 11.3929 14.9196 10.5923 14.9553C9.79167 14.9911 9.53869 15 7.5 15C5.46131 15 5.20833 14.9911 4.40774 14.9553C3.61012 14.9196 3.06548 14.7916 2.58631 14.6071C2.09226 14.4166 1.6756 14.1576 1.25893 13.7408C0.842261 13.3241 0.586309 12.9043 0.392858 12.4132C0.208334 11.9369 0.0803576 11.3921 0.0446424 10.5914C0.0089283 9.79063 0 9.53761 0 7.49851C0 5.45942 0.0089283 5.20639 0.0446424 4.40564C0.0803576 3.60786 0.208334 3.06311 0.392858 2.58385C0.583334 2.0897 0.842261 1.67295 1.25893 1.2562C1.6756 0.839452 2.09524 0.583449 2.58631 0.389958C3.0625 0.205398 3.60714 0.0773963 4.40774 0.0416749C5.21131 0.00893034 5.46726 0 7.50298 0Z" fill="white"/>
<path d="M7.50294 3.6499C9.62794 3.6499 11.3541 5.37346 11.3541 7.50186C11.3541 9.63026 9.63091 11.3538 7.50294 11.3538C5.37496 11.3538 3.65175 9.63026 3.65175 7.50186C3.65175 5.37346 5.37496 3.6499 7.50294 3.6499ZM7.50294 9.99938C8.88389 9.99938 10.0029 8.88011 10.0029 7.49888C10.0029 6.11765 8.88389 4.99838 7.50294 4.99838C6.12199 4.99838 5.00294 6.11765 5.00294 7.49888C5.00294 8.88011 6.12199 9.99938 7.50294 9.99938Z" fill="white"/>
<path d="M3.5 4.39353C3.0036 4.39353 2.60119 3.99097 2.60119 3.49437C2.60119 2.99778 3.0036 2.59521 3.5 2.59521C3.99639 2.59521 4.3988 2.99778 4.3988 3.49437C4.3988 3.99097 3.99639 4.39353 3.5 4.39353Z" fill="white"/>
</svg>
