<svg width="33" height="33" viewBox="0 0 33 33" fill="none" xmlns="http://www.w3.org/2000/svg">
<path fill-rule="evenodd" clip-rule="evenodd" d="M8.02703 16.5C8.02703 11.8205 11.8205 8.02703 16.5 8.02703C21.1795 8.02703 24.973 11.8205 24.973 16.5C24.973 21.1795 21.1795 24.973 16.5 24.973C11.8205 24.973 8.02703 21.1795 8.02703 16.5ZM16.5 22C13.4624 22 11 19.5376 11 16.5C11 13.4624 13.4624 11 16.5 11C19.5376 11 22 13.4624 22 16.5C22 19.5376 19.5376 22 16.5 22Z" fill="url(#paint0_linear_175_467)"/>
<path fill-rule="evenodd" clip-rule="evenodd" d="M8.02703 16.5C8.02703 11.8205 11.8205 8.02703 16.5 8.02703C21.1795 8.02703 24.973 11.8205 24.973 16.5C24.973 21.1795 21.1795 24.973 16.5 24.973C11.8205 24.973 8.02703 21.1795 8.02703 16.5ZM16.5 22C13.4624 22 11 19.5376 11 16.5C11 13.4624 13.4624 11 16.5 11C19.5376 11 22 13.4624 22 16.5C22 19.5376 19.5376 22 16.5 22Z" fill="url(#paint1_radial_175_467)"/>
<path d="M25.3077 9.67225C26.4013 9.67225 27.2878 8.78581 27.2878 7.69228C27.2878 6.59874 26.4013 5.71224 25.3077 5.71224C24.2143 5.71224 23.3278 6.59874 23.3278 7.69228C23.3278 8.78581 24.2143 9.67225 25.3077 9.67225Z" fill="url(#paint2_linear_175_467)"/>
<path d="M25.3077 9.67225C26.4013 9.67225 27.2878 8.78581 27.2878 7.69228C27.2878 6.59874 26.4013 5.71224 25.3077 5.71224C24.2143 5.71224 23.3278 6.59874 23.3278 7.69228C23.3278 8.78581 24.2143 9.67225 25.3077 9.67225Z" fill="url(#paint3_radial_175_467)"/>
<path fill-rule="evenodd" clip-rule="evenodd" d="M16.5 0C12.0189 0 11.457 0.0189941 9.69707 0.0992932C7.94084 0.179396 6.74139 0.458347 5.69187 0.866261C4.60685 1.28786 3.68669 1.85205 2.76934 2.76934C1.85205 3.68669 1.28786 4.60685 0.866261 5.69187C0.458347 6.74139 0.179396 7.94084 0.0992932 9.69707C0.0189941 11.457 0 12.0189 0 16.5C0 20.9811 0.0189941 21.543 0.0992932 23.3029C0.179396 25.0592 0.458347 26.2586 0.866261 27.3081C1.28786 28.3931 1.85205 29.3133 2.76934 30.2307C3.68669 31.1479 4.60685 31.7121 5.69187 32.1338C6.74139 32.5417 7.94084 32.8206 9.69707 32.9007C11.457 32.981 12.0189 33 16.5 33C20.9811 33 21.543 32.981 23.3029 32.9007C25.0592 32.8206 26.2586 32.5417 27.3081 32.1338C28.3931 31.7121 29.3133 31.1479 30.2307 30.2307C31.1479 29.3133 31.7121 28.3931 32.1338 27.3081C32.5417 26.2586 32.8206 25.0592 32.9007 23.3029C32.981 21.543 33 20.9811 33 16.5C33 12.0189 32.981 11.457 32.9007 9.69707C32.8206 7.94084 32.5417 6.74139 32.1338 5.69187C31.7121 4.60685 31.1479 3.68669 30.2307 2.76934C29.3133 1.85205 28.3931 1.28786 27.3081 0.866261C26.2586 0.458347 25.0592 0.179396 23.3029 0.0992932C21.543 0.0189941 20.9811 0 16.5 0ZM16.5 2.97297C20.9057 2.97297 21.4276 2.9898 23.1674 3.06918C24.7762 3.14254 25.6498 3.41134 26.2312 3.6373C27.0014 3.93662 27.5511 4.29417 28.1284 4.87159C28.7058 5.44895 29.0634 5.99859 29.3627 6.76877C29.5887 7.35019 29.8575 8.22385 29.9308 9.83258C30.0102 11.5724 30.027 12.0943 30.027 16.5C30.027 20.9057 30.0102 21.4276 29.9308 23.1674C29.8575 24.7761 29.5887 25.6498 29.3627 26.2312C29.0634 27.0014 28.7058 27.5511 28.1284 28.1284C27.5511 28.7058 27.0014 29.0634 26.2312 29.3627C25.6498 29.5887 24.7762 29.8575 23.1674 29.9308C21.4278 30.0102 20.906 30.027 16.5 30.027C12.094 30.027 11.5723 30.0102 9.83259 29.9308C8.22385 29.8575 7.35019 29.5887 6.76878 29.3627C5.9986 29.0634 5.44895 28.7058 4.87159 28.1284C4.29424 27.5511 3.93663 27.0014 3.63731 26.2312C3.41134 25.6498 3.14254 24.7761 3.06919 23.1674C2.9898 21.4276 2.97297 20.9057 2.97297 16.5C2.97297 12.0943 2.9898 11.5724 3.06919 9.83258C3.14254 8.22385 3.41134 7.35019 3.63731 6.76877C3.93663 5.99859 4.29417 5.44895 4.87159 4.87159C5.44895 4.29417 5.9986 3.93662 6.76878 3.6373C7.35019 3.41134 8.22385 3.14254 9.83259 3.06918C11.5724 2.9898 12.0943 2.97297 16.5 2.97297Z" fill="url(#paint4_linear_175_467)"/>
<path fill-rule="evenodd" clip-rule="evenodd" d="M16.5 0C12.0189 0 11.457 0.0189941 9.69707 0.0992932C7.94084 0.179396 6.74139 0.458347 5.69187 0.866261C4.60685 1.28786 3.68669 1.85205 2.76934 2.76934C1.85205 3.68669 1.28786 4.60685 0.866261 5.69187C0.458347 6.74139 0.179396 7.94084 0.0992932 9.69707C0.0189941 11.457 0 12.0189 0 16.5C0 20.9811 0.0189941 21.543 0.0992932 23.3029C0.179396 25.0592 0.458347 26.2586 0.866261 27.3081C1.28786 28.3931 1.85205 29.3133 2.76934 30.2307C3.68669 31.1479 4.60685 31.7121 5.69187 32.1338C6.74139 32.5417 7.94084 32.8206 9.69707 32.9007C11.457 32.981 12.0189 33 16.5 33C20.9811 33 21.543 32.981 23.3029 32.9007C25.0592 32.8206 26.2586 32.5417 27.3081 32.1338C28.3931 31.7121 29.3133 31.1479 30.2307 30.2307C31.1479 29.3133 31.7121 28.3931 32.1338 27.3081C32.5417 26.2586 32.8206 25.0592 32.9007 23.3029C32.981 21.543 33 20.9811 33 16.5C33 12.0189 32.981 11.457 32.9007 9.69707C32.8206 7.94084 32.5417 6.74139 32.1338 5.69187C31.7121 4.60685 31.1479 3.68669 30.2307 2.76934C29.3133 1.85205 28.3931 1.28786 27.3081 0.866261C26.2586 0.458347 25.0592 0.179396 23.3029 0.0992932C21.543 0.0189941 20.9811 0 16.5 0ZM16.5 2.97297C20.9057 2.97297 21.4276 2.9898 23.1674 3.06918C24.7762 3.14254 25.6498 3.41134 26.2312 3.6373C27.0014 3.93662 27.5511 4.29417 28.1284 4.87159C28.7058 5.44895 29.0634 5.99859 29.3627 6.76877C29.5887 7.35019 29.8575 8.22385 29.9308 9.83258C30.0102 11.5724 30.027 12.0943 30.027 16.5C30.027 20.9057 30.0102 21.4276 29.9308 23.1674C29.8575 24.7761 29.5887 25.6498 29.3627 26.2312C29.0634 27.0014 28.7058 27.5511 28.1284 28.1284C27.5511 28.7058 27.0014 29.0634 26.2312 29.3627C25.6498 29.5887 24.7762 29.8575 23.1674 29.9308C21.4278 30.0102 20.906 30.027 16.5 30.027C12.094 30.027 11.5723 30.0102 9.83259 29.9308C8.22385 29.8575 7.35019 29.5887 6.76878 29.3627C5.9986 29.0634 5.44895 28.7058 4.87159 28.1284C4.29424 27.5511 3.93663 27.0014 3.63731 26.2312C3.41134 25.6498 3.14254 24.7761 3.06919 23.1674C2.9898 21.4276 2.97297 20.9057 2.97297 16.5C2.97297 12.0943 2.9898 11.5724 3.06919 9.83258C3.14254 8.22385 3.41134 7.35019 3.63731 6.76877C3.93663 5.99859 4.29417 5.44895 4.87159 4.87159C5.44895 4.29417 5.9986 3.93662 6.76878 3.6373C7.35019 3.41134 8.22385 3.14254 9.83259 3.06918C11.5724 2.9898 12.0943 2.97297 16.5 2.97297Z" fill="url(#paint5_radial_175_467)"/>
<defs>
<linearGradient id="paint0_linear_175_467" x1="1.92545" y1="1.73491" x2="12.3301" y2="41.9812" gradientUnits="userSpaceOnUse">
<stop stop-color="#4E60D3"/>
<stop offset="0.142763" stop-color="#913BAF"/>
<stop offset="0.761458" stop-color="#D52D88"/>
<stop offset="1" stop-color="#F26D4F"/>
</linearGradient>
<radialGradient id="paint1_radial_175_467" cx="0" cy="0" r="1" gradientUnits="userSpaceOnUse" gradientTransform="translate(9.99053 33) rotate(32.1601) scale(30.8202 22.1803)">
<stop stop-color="#FED276"/>
<stop offset="0.17024" stop-color="#FDBD61" stop-opacity="0.975006"/>
<stop offset="0.454081" stop-color="#F6804D"/>
<stop offset="1" stop-color="#E83D5C" stop-opacity="0.01"/>
</radialGradient>
<linearGradient id="paint2_linear_175_467" x1="1.92545" y1="1.73491" x2="12.3301" y2="41.9812" gradientUnits="userSpaceOnUse">
<stop stop-color="#4E60D3"/>
<stop offset="0.142763" stop-color="#913BAF"/>
<stop offset="0.761458" stop-color="#D52D88"/>
<stop offset="1" stop-color="#F26D4F"/>
</linearGradient>
<radialGradient id="paint3_radial_175_467" cx="0" cy="0" r="1" gradientUnits="userSpaceOnUse" gradientTransform="translate(9.99053 33) rotate(32.1601) scale(30.8202 22.1803)">
<stop stop-color="#FED276"/>
<stop offset="0.17024" stop-color="#FDBD61" stop-opacity="0.975006"/>
<stop offset="0.454081" stop-color="#F6804D"/>
<stop offset="1" stop-color="#E83D5C" stop-opacity="0.01"/>
</radialGradient>
<linearGradient id="paint4_linear_175_467" x1="1.92545" y1="1.73491" x2="12.3301" y2="41.9812" gradientUnits="userSpaceOnUse">
<stop stop-color="#4E60D3"/>
<stop offset="0.142763" stop-color="#913BAF"/>
<stop offset="0.761458" stop-color="#D52D88"/>
<stop offset="1" stop-color="#F26D4F"/>
</linearGradient>
<radialGradient id="paint5_radial_175_467" cx="0" cy="0" r="1" gradientUnits="userSpaceOnUse" gradientTransform="translate(9.99053 33) rotate(32.1601) scale(30.8202 22.1803)">
<stop stop-color="#FED276"/>
<stop offset="0.17024" stop-color="#FDBD61" stop-opacity="0.975006"/>
<stop offset="0.454081" stop-color="#F6804D"/>
<stop offset="1" stop-color="#E83D5C" stop-opacity="0.01"/>
</radialGradient>
</defs>
</svg>
