<svg width="33" height="34" viewBox="0 0 33 34" fill="none" xmlns="http://www.w3.org/2000/svg">
<path d="M16.5118 33.0642C25.618 33.0642 33 25.6822 33 16.576C33 7.46989 25.618 0.0878906 16.5118 0.0878906C7.40568 0.0878906 0.0236816 7.46989 0.0236816 16.576C0.0236816 25.6822 7.40568 33.0642 16.5118 33.0642Z" fill="url(#paint0_linear_175_476)"/>
<path fill-rule="evenodd" clip-rule="evenodd" d="M7.48718 16.4019C12.2938 14.3077 15.499 12.9271 17.1027 12.2601C21.6816 10.3556 22.6331 10.0247 23.2532 10.0138C23.3896 10.0114 23.6946 10.0452 23.8922 10.2055C24.059 10.3408 24.1049 10.5237 24.1268 10.652C24.1488 10.7803 24.1761 11.0727 24.1544 11.3011C23.9063 13.9083 22.8326 20.2352 22.2864 23.1552C22.0552 24.3908 21.6001 24.8051 21.1596 24.8457C20.2021 24.9338 19.475 24.2129 18.5476 23.605C17.0964 22.6537 16.2766 22.0615 14.868 21.1333C13.2401 20.0605 14.2954 19.4709 15.2231 18.5073C15.4659 18.2552 19.6847 14.4179 19.7663 14.0698C19.7765 14.0262 19.786 13.864 19.6896 13.7783C19.5932 13.6926 19.4509 13.7219 19.3482 13.7452C19.2027 13.7782 16.8844 15.3105 12.3934 18.342C11.7354 18.7939 11.1394 19.0141 10.6054 19.0025C10.0166 18.9898 8.8842 18.6697 8.04234 18.396C7.00977 18.0603 6.1891 17.8829 6.26056 17.3129C6.29779 17.0159 6.70666 16.7123 7.48718 16.4019Z" fill="white"/>
<defs>
<linearGradient id="paint0_linear_175_476" x1="16.5118" y1="0.0878906" x2="16.5118" y2="32.8196" gradientUnits="userSpaceOnUse">
<stop stop-color="#2AABEE"/>
<stop offset="1" stop-color="#229ED9"/>
</linearGradient>
</defs>
</svg>
