<svg width="15" height="15" viewBox="0 0 15 15" fill="none" xmlns="http://www.w3.org/2000/svg">
<path d="M0.624878 13.7499H14.3749C14.5574 13.7499 14.7072 13.8084 14.8243 13.9255C14.9413 14.0426 14.9999 14.1924 14.9999 14.3749C14.9999 14.5575 14.9413 14.7073 14.8243 14.8244C14.7072 14.9415 14.5574 15 14.3749 15H0.624878C0.442378 15 0.292586 14.9415 0.175503 14.8244C0.0584197 14.7073 -0.00012207 14.5575 -0.00012207 14.3749C-0.00012207 14.1924 0.0584197 14.0426 0.175503 13.9255C0.292586 13.8084 0.442378 13.7499 0.624878 13.7499ZM8.12488 2.46021V11.2503H6.87488V2.32394L2.12863 7.07059L1.24988 6.19177L7.44113 0L13.6324 6.19177L12.7336 7.07059L8.12488 2.46021Z" fill="white" fill-opacity="0.96"/>
</svg>
