<svg width="32" height="33" viewBox="0 0 32 33" fill="none" xmlns="http://www.w3.org/2000/svg">
<path d="M11.1896 8.82463C11.4732 8.83655 11.787 8.8502 12.0851 9.53081C12.2888 9.99609 12.6316 10.8635 12.9048 11.5548C13.1061 12.0642 13.2696 12.4779 13.3118 12.5646C13.4113 12.769 13.4776 13.0077 13.3449 13.2806C13.3251 13.3214 13.3067 13.3599 13.2892 13.3967C13.1895 13.6057 13.1162 13.7592 12.9474 13.9622C12.8812 14.0415 12.8128 14.127 12.7444 14.2124C12.6071 14.384 12.4697 14.5557 12.3504 14.6779C12.1508 14.8817 11.9435 15.1031 12.1757 15.5118C12.4079 15.921 13.2065 17.2589 14.3894 18.3421C15.6602 19.5059 16.7642 19.9982 17.3248 20.2481C17.4349 20.2972 17.524 20.337 17.5894 20.3706C17.9874 20.575 18.2195 20.541 18.4516 20.2678C18.6838 19.9953 19.446 19.0749 19.7113 18.6661C19.9766 18.257 20.2419 18.3251 20.6067 18.4613C20.9715 18.5976 22.9278 19.5865 23.3258 19.7909C23.4034 19.8307 23.4759 19.8667 23.5432 19.9C23.8209 20.0377 24.0084 20.1307 24.0885 20.2678C24.188 20.4388 24.188 21.2567 23.8564 22.211C23.5248 23.1654 21.9001 24.0858 21.1705 24.1539C21.1003 24.1605 21.0305 24.1689 20.9587 24.1776C20.2844 24.259 19.4334 24.3618 16.3954 23.1313C12.6573 21.6172 10.1926 17.865 9.68339 17.0899C9.64164 17.0263 9.61303 16.9827 9.59795 16.9621L9.59352 16.956C9.37895 16.6615 7.97312 14.7317 7.97312 12.735C7.97312 10.8527 8.87389 9.86609 9.28834 9.41214C9.31666 9.38111 9.34271 9.35258 9.36605 9.32642C9.73058 8.91741 10.1618 8.81506 10.427 8.81506C10.4416 8.81506 10.4561 8.81506 10.4707 8.81506C10.7212 8.81502 10.9705 8.81499 11.1896 8.82463Z" fill="url(#paint0_linear_175_474)"/>
<path fill-rule="evenodd" clip-rule="evenodd" d="M2.28113 24.519C0.867471 22.044 0.128514 19.239 0.128514 16.335C0.128514 7.326 7.29317 0 16.0643 0C20.3374 0 24.3213 1.716 27.3414 4.785C30.3293 7.887 32 11.979 32 16.368C32 25.377 24.8353 32.703 16.0643 32.703C13.3976 32.703 10.7631 32.043 8.4498 30.723L0 33L2.28113 24.519ZM4.8514 23.595L5.17269 24.09L3.82329 29.106L8.83534 27.753L9.31727 28.05C11.3414 29.304 13.6867 29.964 16.0643 29.964C23.3574 29.964 29.3012 23.859 29.3012 16.368C29.3012 12.738 27.9197 9.306 25.4137 6.732C22.9398 4.191 19.5984 2.772 16.0643 2.772C8.77108 2.772 2.82731 8.844 2.82731 16.368C2.82731 18.909 3.53414 21.417 4.8514 23.595Z" fill="url(#paint1_linear_175_474)"/>
<defs>
<linearGradient id="paint0_linear_175_474" x1="0" y1="16.5018" x2="32" y2="16.5018" gradientUnits="userSpaceOnUse">
<stop stop-color="#20B038"/>
<stop offset="1" stop-color="#60D66A"/>
</linearGradient>
<linearGradient id="paint1_linear_175_474" x1="0" y1="16.5018" x2="32" y2="16.5018" gradientUnits="userSpaceOnUse">
<stop stop-color="#20B038"/>
<stop offset="1" stop-color="#60D66A"/>
</linearGradient>
</defs>
</svg>
