<svg width="15" height="15" viewBox="0 0 15 15" fill="none" xmlns="http://www.w3.org/2000/svg">
<path d="M0 15L1.06017 11.1502C0.404728 10.0202 0.0608882 8.74049 0.0644699 7.43227C0.0644699 3.33294 3.4169 0 7.53223 0C9.5308 0 11.4076 0.773527 12.8152 2.17799C14.2263 3.58246 15.0036 5.45033 15 7.43584C15 11.5352 11.6476 14.8681 7.52865 14.8681H7.52507C6.27507 14.8681 5.04656 14.5544 3.95415 13.9627L0 15ZM4.14398 12.6188L4.36962 12.7543C5.32235 13.3175 6.41475 13.6134 7.52865 13.6169H7.53223C10.9527 13.6169 13.7392 10.8472 13.7392 7.4394C13.7392 5.78897 13.0945 4.23836 11.9233 3.06915C10.7521 1.89995 9.19054 1.25832 7.53223 1.25832C4.11174 1.25475 1.32521 4.02448 1.32521 7.43227C1.32521 8.59791 1.65114 9.73503 2.27435 10.7189L2.4212 10.9541L1.79441 13.2319L4.14398 12.6188Z" fill="url(#paint0_linear_267_1288)"/>
<path fill-rule="evenodd" clip-rule="evenodd" d="M5.66595 4.32463C5.52626 4.0145 5.37941 4.00737 5.24689 4.00381C5.13944 4.00024 5.01408 4.00024 4.88873 4.00024C4.76337 4.00024 4.56279 4.04658 4.39088 4.23195C4.21896 4.41731 3.73901 4.86645 3.73901 5.78256C3.73901 6.69511 4.40878 7.57914 4.50191 7.7039C4.59503 7.82867 5.79489 9.76426 7.68958 10.5093C9.26551 11.1295 9.58786 11.0048 9.92812 10.9727C10.2684 10.9406 11.0313 10.5235 11.1889 10.0886C11.3429 9.65376 11.3429 9.28304 11.2963 9.20462C11.2498 9.12619 11.1244 9.07985 10.9381 8.98717C10.7519 8.89449 9.835 8.44535 9.66308 8.38119C9.49116 8.32059 9.3658 8.2885 9.24402 8.47387C9.11867 8.65923 8.7605 9.07629 8.65305 9.20105C8.5456 9.32581 8.43457 9.34007 8.24832 9.24739C8.06208 9.15471 7.46036 8.95866 6.74761 8.32415C6.19245 7.83223 5.81638 7.22268 5.70893 7.03732C5.60148 6.85195 5.69818 6.75215 5.7913 6.65946C5.87368 6.57748 5.97755 6.44202 6.07067 6.33508C6.1638 6.22814 6.19603 6.14972 6.25692 6.02496C6.31781 5.9002 6.28915 5.79326 6.24259 5.70058C6.19603 5.61146 5.8307 4.69178 5.66595 4.32463Z" fill="white"/>
<defs>
<linearGradient id="paint0_linear_267_1288" x1="7.50146" y1="14.9986" x2="7.50146" y2="0" gradientUnits="userSpaceOnUse">
<stop stop-color="#F9F9F9"/>
<stop offset="1" stop-color="white"/>
</linearGradient>
</defs>
</svg>
